# xmcd
#
# Track frame offsets:
#	150
#	16825
#	30760
#	47425
#
# Disc length: 815 seconds
#
# Revision: 9
# Processed by: cddbd v1.5PL3 Copyright (c) Steve Scherf et al.
# Submitted via: CDex 1.50Beta5
#
DISCID=1a032d04
DTITLE=Kaede+Cheek Fairy - ミルモでポン! プリティ・ケーキ・マジック
DYEAR=2002
DGENRE=Anime
TTITLE0=Kaede+Cheek Fairy/プリティ・ケーキ・マジック
TTITLE1=Kaede/ミルモのワルツ
TTITLE2=Kaede+Cheek Fairy/プリティ・ケーキ・マジック(カラオケ)
TTITLE3=Kaede/ミルモのワルツ(カラオケ)
EXTD=
EXTT0=
EXTT1=
EXTT2=
EXTT3=
PLAYORDER=
